<svg class="svg-standalone-icon" width="42px" viewBox="220.20934415279345 114.99999999999997 109.5813116944131 166.3924794359577"><g data-paper-data="{&quot;selectedEffects&quot;:{&quot;container&quot;:&quot;&quot;,&quot;transformation&quot;:&quot;&quot;,&quot;pattern&quot;:&quot;&quot;},&quot;initialText&quot;:&quot;S&quot;,&quot;fillRule&quot;:&quot;nonzero&quot;,&quot;bounds&quot;:{&quot;x&quot;:220.20934415279345,&quot;y&quot;:114.99999999999997,&quot;width&quot;:109.5813116944131,&quot;height&quot;:166.3924794359577},&quot;isIcon&quot;:&quot;true&quot;,&quot;iconType&quot;:&quot;initial&quot;,&quot;iconStyle&quot;:&quot;standalone&quot;,&quot;rawInitialId&quot;:420,&quot;monogramSpecial&quot;:&quot;volume&quot;,&quot;suitableAsStandaloneIcon&quot;:true}" fill-rule="nonzero"><path d="M329.79066,157.07352v-16.63925l-0.2377,-0.47541l-54.1964,-24.95887h-0.71311l-53.95869,24.72117l-0.47541,0.47541v49.68004l0.71311,0.95082l70.83565,32.56538v15.21302l-16.63925,7.60651l-35.41782,-16.16384h-0.71311l-18.30317,8.31962l-0.47541,0.95082v16.40155l0.71311,0.95082l53.95869,24.72117l54.1964,-24.72117l0.71311,-0.95082v-49.68004l-0.2377,-0.47541l-71.31106,-32.80308v-14.97532l16.63925,-7.84421l35.89323,16.40155l18.30317,-8.31962zM223.77489,140.67198l51.10625,-23.53264l51.34396,23.53264l-15.45073,6.8934l-35.41782,-16.16384h-0.47541l-35.65552,16.16384zM273.93034,148.04079l-17.35235,8.08192l-0.47541,0.95082v15.68843l-15.92614,7.36881v-30.66375l33.7539,-15.45073zM309.82356,163.49151l-33.7539,-15.45073v-14.0245l33.7539,15.45073zM293.42202,221.72887l-71.07335,-32.56538v-46.82759l15.68843,7.13111v32.56538l0.47541,0.47541l71.31106,32.80308v30.42605l-15.92614,-7.36881v-15.68843zM327.65132,142.3359v14.0245l-15.68843,7.13111v-14.0245zM241.84036,181.79468l15.21302,-7.13111l69.17172,31.61457l-15.45073,6.8934zM327.65132,255.00736l-51.58166,23.53264v-14.0245l35.41782,-16.40155l0.47541,-0.71311v-32.08997l15.68843,-7.36881zM224.0126,239.31893l15.21302,-7.13111l35.41782,16.16384h0.95082l17.35235,-7.84421l15.21302,6.8934l-33.04079,15.21302zM222.34868,255.00736v-14.0245l51.58166,23.53264v14.0245z" data-paper-data="{&quot;isPathIcon&quot;:true}" style="fill: rgb(255, 255, 255);"></path></g></svg>